<?xml version="1.0" encoding="utf-8"?>
<!-- Generator: Adobe Illustrator 25.2.1, SVG Export Plug-In . SVG Version: 6.00 Build 0)  -->
<svg version="1.2" baseProfile="tiny"
	 id="Layer_1" xmlns:cc="http://creativecommons.org/ns#" xmlns:dc="http://purl.org/dc/elements/1.1/" xmlns:rdf="http://www.w3.org/1999/02/22-rdf-syntax-ns#"
	 xmlns="http://www.w3.org/2000/svg" xmlns:xlink="http://www.w3.org/1999/xlink" x="0px" y="0px" viewBox="0 0 64 64"
	 overflow="visible" xml:space="preserve">
<path id="bg" fill="#A8AAAD" d="M32,1.5C16.3,1.5,3.4,13.2,1.6,28.4c-0.1,1.2-0.2,2.3-0.2,3.5c0,16.8,13.7,30.5,30.5,30.6
	c16.9,0,30.5-13.6,30.5-30.4S48.8,1.5,32,1.5z"/>
<path id="icon" d="M31.7,57.6l0.1-0.2L31.7,57.6c-8.9-5.1-22.2-12.8-19.9-39.8l0-0.2l0.2,0c0.2,0,0.4,0,0.6,0c0.6,0,1.2,0,1.7,0.1
	c0.6,0,1.2,0.1,1.8,0.1c2.5,0,6.2-0.7,15.5-5.5l0.1-0.1l0.1,0.1c9.3,4.8,13.1,5.5,15.6,5.5c0.7,0,1.3-0.1,1.9-0.1
	c0.6-0.1,1.1-0.1,1.8-0.1c0.2,0,0.4,0,0.6,0l0.2,0l0,0.2c2.3,27.1-10.6,34.4-20,39.8l-0.1,0.1L31.7,57.6z M16.6,27.8
	C16.3,38,28,51.3,30.7,52.2c0.4,0.1,0.8,0.2,1.2,0.2c2.8,0,7-2.5,7.4-8C34.8,37.2,19.1,29.1,16.6,27.8z M21.4,20.4
	c1.6,7.3,10.4,11.4,18.2,15c2.1,1,4.1,1.9,5.8,2.8c0.3-1.4,0.8-2.7,1.2-3.9c1.3-3.9,2.7-8,1-13.4c-6-0.6-9.5-2.3-13.1-4
	c-0.9-0.4-1.8-0.9-2.8-1.3c-2.3,1.5-4.2,2.3-7.2,3.5C23.6,19.5,22.6,19.9,21.4,20.4z"/>
<path id="border" d="M32,63.8C32,63.8,32,63.8,32,63.8c-17.6,0-31.9-14.3-31.9-31.8c0-1.2,0.1-2.5,0.2-3.7c1.8-16,15.4-28,31.5-28
	c0,0,0,0,0.1,0c17.5,0,31.8,14.3,31.8,31.8c0,8.5-3.3,16.4-9.3,22.4C48.5,60.5,40.5,63.8,32,63.8z M31.9,2.7
	C17,2.7,4.6,13.8,2.9,28.5c-0.1,1.1-0.2,2.3-0.2,3.4c0,16.1,13.1,29.3,29.3,29.3c0,0,0,0,0.1,0c7.8,0,15.1-3,20.7-8.5
	c5.5-5.5,8.6-12.8,8.6-20.7C61.3,15.9,48.1,2.8,31.9,2.7L31.9,2.7C31.9,2.7,31.9,2.7,31.9,2.7z"/>
</svg>
