<?xml version="1.0" encoding="utf-8"?>
<!-- Generator: Adobe Illustrator 25.2.1, SVG Export Plug-In . SVG Version: 6.00 Build 0)  -->
<svg version="1.2" baseProfile="tiny"
	 id="Layer_1" xmlns:cc="http://creativecommons.org/ns#" xmlns:dc="http://purl.org/dc/elements/1.1/" xmlns:rdf="http://www.w3.org/1999/02/22-rdf-syntax-ns#"
	 xmlns="http://www.w3.org/2000/svg" xmlns:xlink="http://www.w3.org/1999/xlink" x="0px" y="0px" viewBox="0 0 64 64"
	 overflow="visible" xml:space="preserve">
<ellipse id="bg" transform="matrix(0.7075 -0.7067 0.7067 0.7075 -13.2517 31.9843)" fill="#8CBF3E" cx="32" cy="32" rx="30.7" ry="30.8"/>
<g id="icon">
	<path id="bottom-koru" d="M51,41c0,0-1.7-21.5-18.9-25.5c-15.6-2.2-13.9,14-6.8,9.3c4.8-3.3,9.3,6.8,0.5,8.3
		C17.6,34.5,5.6,13.8,26.6,9C47.7,4.2,57.4,27.9,51,41L51,41z"/>
	<path id="top-koru" d="M12.8,22.9c0,0,1.7,21.5,18.9,25.5c15.6,2.2,13.9-14,6.8-9.3c-4.8,3.3-9.3-6.8-0.5-8.3
		c8.3-1.5,20.2,19.2-0.8,24.1C16.2,59.6,6.5,35.9,12.8,22.9L12.8,22.9z"/>
</g>
<path id="border" d="M32.1,64C32.1,64,32,64,32.1,64C14.4,64,0,49.6,0,31.9c0-8.5,3.3-16.6,9.4-22.6c6-6,14-9.3,22.6-9.3
	c0,0,0,0,0.1,0l0,0c17.6,0,32,14.4,32,32.1c0,8.5-3.3,16.6-9.4,22.6C48.6,60.7,40.6,64,32.1,64z M31.9,2.5c-7.9,0-15.2,3-20.8,8.6
	c-5.6,5.6-8.6,13-8.6,20.8c0,16.3,13.2,29.5,29.5,29.6c7.9,0,15.3-3,20.8-8.6c5.6-5.6,8.6-13,8.6-20.8C61.5,15.8,48.3,2.6,31.9,2.5
	C32,2.5,32,2.5,31.9,2.5z"/>
</svg>
