<?xml version="1.0" encoding="utf-8"?>
<!-- Generator: Adobe Illustrator 25.2.1, SVG Export Plug-In . SVG Version: 6.00 Build 0)  -->
<svg version="1.2" baseProfile="tiny"
	 id="Layer_1" xmlns:cc="http://creativecommons.org/ns#" xmlns:dc="http://purl.org/dc/elements/1.1/" xmlns:rdf="http://www.w3.org/1999/02/22-rdf-syntax-ns#"
	 xmlns="http://www.w3.org/2000/svg" xmlns:xlink="http://www.w3.org/1999/xlink" x="0px" y="0px" viewBox="0 0 64 64"
	 overflow="visible" xml:space="preserve">
<ellipse id="bg" transform="matrix(0.7075 -0.7067 0.7067 0.7075 -13.2551 31.9751)" fill="#9FCFF0" cx="32" cy="32" rx="30.7" ry="30.8"/>
<g id="icon">
	<path id="bottom" d="M31.6,57.1C17.2,47.4,11.9,36.4,8.4,22.8l-0.6-2.4l1.8,1.8c1.1,1.1,2.2,2.5,3.2,3.8c2.7,3.4,5.5,6.9,9.1,6.9
		h0.4l0.2,0.4c2.8,5.8,7.1,12.1,9.8,12.1c2.7-0.1,7.5-6.4,10.3-12.1l0.2-0.4l0.4,0c4.9-0.2,7.1-3.4,9.7-7.1c0.8-1.2,1.7-2.4,2.6-3.5
		l1.5-1.8l-0.3,2.3c-1.9,13.4-9.8,24.6-24.2,34.4L32,57.3L31.6,57.1z"/>
	<path id="top" d="M31.3,38.2c-0.6,0-1.2-0.4-1.5-0.9L22,22.4c-0.3-0.7-0.2-1.5,0.2-2l7.8-8.7c0.3-0.4,0.8-0.6,1.3-0.6
		c0,0,1.8,0,1.8,0c0.5,0,1,0.2,1.3,0.6l7.7,8.7c0.5,0.5,0.6,1.3,0.3,2l-7.7,14.9c-0.3,0.6-0.9,1-1.6,1
		C33.1,38.3,31.3,38.2,31.3,38.2z"/>
</g>
<path id="border" d="M32.1,64C32,64,32,64,32.1,64C14.4,64,0,49.6,0,31.9c0-8.5,3.3-16.6,9.4-22.6c6-6,14-9.3,22.6-9.3
	c0,0,0,0,0.1,0c17.6,0,32,14.4,32,32.1c0,8.5-3.3,16.6-9.4,22.6C48.6,60.7,40.6,64,32.1,64z M31.9,2.5c-7.9,0-15.2,3-20.8,8.6
	c-5.6,5.6-8.6,13-8.6,20.8c0,16.3,13.2,29.5,29.5,29.6c0,0,0,0,0.1,0c7.9,0,15.2-3,20.8-8.6c5.6-5.6,8.6-13,8.6-20.8
	C61.5,15.8,48.3,2.6,31.9,2.5C32,2.5,32,2.5,31.9,2.5z"/>
</svg>
