<?xml version="1.0" encoding="utf-8"?>
<!-- Generator: Adobe Illustrator 25.2.1, SVG Export Plug-In . SVG Version: 6.00 Build 0)  -->
<svg version="1.1" id="Layer_1" xmlns="http://www.w3.org/2000/svg" xmlns:xlink="http://www.w3.org/1999/xlink" x="0px" y="0px"
	 viewBox="0 0 128 128" enable-background="new 0 0 128 128" xml:space="preserve">
<radialGradient id="right_1_" cx="65.1845" cy="65.1089" r="63.064" gradientTransform="matrix(1.0077 0 0 1.0077 0 -0.4118)" gradientUnits="userSpaceOnUse">
	<stop  offset="0" style="stop-color:#8DC641"/>
	<stop  offset="0.1677" style="stop-color:#80B840"/>
	<stop  offset="0.4466" style="stop-color:#639F3F"/>
	<stop  offset="0.8002" style="stop-color:#337C3B"/>
	<stop  offset="0.9944" style="stop-color:#046937"/>
</radialGradient>
<path id="right" fill="url(#right_1_)" d="M99.2,14.6c2.6,3.7,4.4,7.9,5.3,12.4c1,4.4,1.1,9.2,0.1,13.8c-1,4.6-3.1,8.9-6.1,12.6
	L98.1,54l-0.6,0.6L96.2,56c-0.4,0.4-0.9,0.8-1.3,1.2c-0.4,0.4-0.9,0.8-1.4,1.2c-1.5,1.1-3,2.1-4.7,3c0.3,0.1,0.5,0.1,0.8,0.2
	l0.8,0.2l0.8,0.3c0.5,0.2,1.1,0.4,1.6,0.6c0.5,0.3,1.1,0.5,1.6,0.8c0.5,0.3,1,0.6,1.5,0.9c0.5,0.3,1,0.7,1.4,1.1
	c1.9,1.5,3.5,3.4,4.7,5.4c1.2,2.1,2,4.3,2.4,6.7c0.4,2.3,0.4,4.7-0.1,7c-0.1,0.6-0.3,1.1-0.4,1.7c-0.1,0.3-0.1,0.6-0.2,0.8l-0.3,0.8
	l-0.3,0.8c-0.1,0.3-0.3,0.5-0.4,0.8l-0.4,0.8l-0.5,0.8c-1.3,2-3.1,3.7-5.1,4.9c-2,1.2-4.3,1.9-6.6,2.1c-2.3,0.2-4.6-0.1-6.7-1
	c-2.1-0.8-4-2.1-5.4-3.9c-0.4-0.4-0.6-0.9-0.9-1.4c-0.2-0.5-0.5-1-0.7-1.5c-0.4-1-0.7-2.1-0.7-3.1c-0.2-2.1,0.3-4.2,1.2-6
	c-1.2,3.9,0,8.1,2.7,10.6c1.3,1.3,2.9,2.1,4.7,2.5c0.2,0.1,0.4,0.1,0.7,0.1l0.7,0.1c0.4,0.1,0.9,0.1,1.3,0.1c0.4,0,0.9,0,1.3-0.1
	l0.7-0.1c0.2,0,0.4-0.1,0.6-0.1c1.7-0.4,3.3-1.1,4.7-2.1c1.4-1,2.5-2.3,3.2-3.8c0.8-1.4,1.2-3.1,1.4-4.8c0.2-1.7,0.1-3.4-0.3-5
	c-0.8-3.2-2.8-6.1-5.4-8c-0.3-0.2-0.6-0.5-1-0.7c-0.4-0.2-0.7-0.4-1.1-0.6c-0.4-0.2-0.7-0.3-1.1-0.5c-0.4-0.1-0.8-0.3-1.2-0.4
	l-0.6-0.2L88,68.2c-0.4-0.1-0.8-0.2-1.2-0.3c-0.8-0.1-1.7-0.2-2.5-0.2c-0.8-0.1-1.7,0.1-2.5,0.1c-0.8,0.2-1.7,0.2-2.5,0.5
	c-0.8,0.2-1.6,0.5-2.4,0.8c-0.4,0.2-0.7,0.4-1.1,0.5c-0.2,0.1-0.4,0.2-0.6,0.3l-0.5,0.3c-0.3,0.2-0.7,0.4-1.1,0.7l-1,0.7
	c-0.3,0.3-0.6,0.6-0.9,0.8L71.2,73l-0.4,0.5c-1.2,1.2-2.1,2.6-2.8,4.1l-0.5,1.1c-0.2,0.4-0.3,0.8-0.4,1.2c-0.1,0.4-0.3,0.8-0.4,1.2
	l-0.3,1.3c-0.4,1.7-0.6,3.4-0.6,5.1c0,3.5,0.8,6.9,2.3,10.1l0.3,0.6c0.1,0.2,0.2,0.4,0.3,0.6l0.7,1.1c0.2,0.4,0.5,0.7,0.7,1.1
	l0.8,1.1l0.9,1c0.3,0.3,0.6,0.7,0.9,1c0.6,0.6,1.2,1.3,2,1.8l1,0.8c0.4,0.3,0.7,0.5,1.1,0.7c0.4,0.2,0.7,0.5,1.1,0.7l1.2,0.6
	c1.6,0.8,3.3,1.5,5.1,1.9c7,1.9,14.9,0.9,21.8-2.4c3.5-1.7,6.7-3.9,9.5-6.6c0.7-0.6,1.3-1.3,2-2C124,89.4,128,77.2,128,64
	c0-25.8-15.4-48.1-37.4-58.2C93.9,8.2,96.9,11.1,99.2,14.6z"/>
<radialGradient id="center_1_" cx="65.1845" cy="65.1089" r="63.064" gradientTransform="matrix(1.0077 0 0 1.0077 0 -0.4118)" gradientUnits="userSpaceOnUse">
	<stop  offset="0" style="stop-color:#8DC641"/>
	<stop  offset="0.1677" style="stop-color:#80B840"/>
	<stop  offset="0.4466" style="stop-color:#639F3F"/>
	<stop  offset="0.8002" style="stop-color:#337C3B"/>
	<stop  offset="0.9944" style="stop-color:#046937"/>
</radialGradient>
<path id="center" fill="url(#center_1_)" d="M66,67.7l0.7-0.6c0.4-0.4,0.9-0.8,1.3-1.2l1.4-1c0.2-0.2,0.5-0.3,0.7-0.5
	c-1.3-0.2-2.5-0.6-3.8-1c-1.2-0.4-2.4-1-3.6-1.6c0.1,0.3,0.2,0.6,0.3,0.9c0.2,0.6,0.3,1.2,0.5,1.8l0.2,0.9l0.1,0.9
	c0.1,0.6,0.2,1.2,0.2,1.8l0.1,1.5c0.4-0.4,0.7-0.9,1.1-1.3L66,67.7z"/>
<radialGradient id="top_1_" cx="65.1845" cy="65.1089" r="63.064" gradientTransform="matrix(1.0077 0 0 1.0077 0 -0.4118)" gradientUnits="userSpaceOnUse">
	<stop  offset="0" style="stop-color:#8DC641"/>
	<stop  offset="0.1677" style="stop-color:#80B840"/>
	<stop  offset="0.4466" style="stop-color:#639F3F"/>
	<stop  offset="0.8002" style="stop-color:#337C3B"/>
	<stop  offset="0.9944" style="stop-color:#046937"/>
</radialGradient>
<path id="top" fill="url(#top_1_)" d="M2.2,78c-0.1-4.4,0.6-8.9,2.1-13.1c1.5-4.2,3.9-8.2,6.9-11.6c3-3.4,6.8-6.3,11.1-8.2
	c4.3-1.9,9.1-2.7,13.8-2.5c1.2,0,2.4,0.2,3.5,0.4c0.6,0.1,1.2,0.2,1.7,0.4l1.7,0.4l1.7,0.6c0.6,0.2,1.1,0.4,1.7,0.6l1.6,0.7
	c0.3,0.1,0.5,0.2,0.8,0.4l0.8,0.4l0.8,0.5c-0.5-1.7-0.9-3.5-1.1-5.3c-0.3-2.4-0.1-5,0.5-7.4c0.6-2.4,1.7-4.7,3.1-6.7
	c1.4-2,3.2-3.8,5.2-5.1c2-1.4,4.3-2.4,6.6-3c1.2-0.3,2.4-0.5,3.6-0.5c0.3,0,0.6-0.1,0.9-0.1l0.9,0c0.6,0,1.2,0.1,1.8,0.2
	c2.4,0.4,4.8,1.3,6.8,2.6c2,1.4,3.7,3.2,4.9,5.2c1.2,2,1.9,4.4,2,6.7c0.1,1.1,0.1,2.3-0.1,3.5c-0.2,1.1-0.6,2.3-1.1,3.3
	c-0.5,1-1.2,2-1.9,2.8c-0.4,0.4-0.8,0.8-1.2,1.2c-0.5,0.3-0.9,0.7-1.4,0.9c-1.9,1.1-4.1,1.7-6.2,1.6c4.2-0.7,7.6-3.7,8.8-7.3
	c0.3-0.9,0.4-1.8,0.5-2.8c0-0.5,0-0.9,0-1.4c0-0.5-0.1-0.9-0.2-1.4c-0.4-1.8-1.1-3.6-2.3-5c-2.2-2.9-5.6-4.8-9.1-5
	c-0.4,0-0.9-0.1-1.3,0c-0.4,0-0.9,0-1.3,0.1c-0.9,0.1-1.8,0.3-2.6,0.6c-1.7,0.5-3.2,1.4-4.6,2.5c-2.7,2.2-4.7,5.3-5.4,8.6l-0.2,1.3
	c0,0.4,0,0.8-0.1,1.3c0,0.2,0,0.4,0,0.6l0,0.6c0,0.4,0.1,0.9,0.1,1.3c0.2,1.8,0.7,3.5,1.4,5.1C60.4,52.5,67,57.2,74,57.4
	c0.4,0,0.9,0,1.3,0l0.7,0c0.2,0,0.4,0,0.7-0.1c0.9-0.1,1.8-0.1,2.7-0.4l1.3-0.3c0.4-0.1,0.9-0.3,1.3-0.4c0.4-0.1,0.9-0.3,1.3-0.4
	l1.2-0.5c1.7-0.7,3.2-1.7,4.7-2.7c0.4-0.3,0.7-0.6,1.1-0.9c0.3-0.3,0.7-0.6,1-0.9l1-1l0.5-0.5l0.4-0.5c2.4-2.8,4.1-6.1,5.2-9.6
	l0.3-1.4c0.1-0.5,0.2-0.9,0.3-1.4l0.2-1.4l0.1-0.7c0-0.2,0-0.5,0-0.7c0.1-1.8,0-3.8-0.3-5.7c-1.1-7.6-5.2-14.8-11.2-19.9
	c-3-2.6-6.6-4.6-10.4-6.1c-1.9-0.7-3.8-1.2-5.8-1.6C69,0.2,66.5,0,64,0C28.7,0,0,28.7,0,64c0,6.2,0.9,12.1,2.5,17.8
	C2.4,80.5,2.2,79.3,2.2,78z"/>
<radialGradient id="bottom_1_" cx="65.1845" cy="65.1089" r="63.064" gradientTransform="matrix(1.0077 0 0 1.0077 0 -0.4118)" gradientUnits="userSpaceOnUse">
	<stop  offset="0" style="stop-color:#8DC641"/>
	<stop  offset="0.1677" style="stop-color:#80B840"/>
	<stop  offset="0.4466" style="stop-color:#639F3F"/>
	<stop  offset="0.8002" style="stop-color:#337C3B"/>
	<stop  offset="0.9944" style="stop-color:#046937"/>
</radialGradient>
<path id="bottom" fill="url(#bottom_1_)" d="M95.6,116.2c-4.2,0.9-8.7,1-13.1,0.1c-2.2-0.4-4.3-1.1-6.4-2l-1.5-0.7
	c-0.5-0.2-1-0.5-1.5-0.8c-0.5-0.3-1-0.5-1.5-0.9l-1.4-1c-1-0.6-1.8-1.4-2.6-2.2c-0.4-0.4-0.8-0.8-1.2-1.2l-1.2-1.3
	c-0.4-0.4-0.7-0.9-1-1.4c-0.3-0.5-0.7-0.9-1-1.4l-0.9-1.5c-0.1-0.2-0.3-0.5-0.4-0.7l-0.4-0.8c-2.1-4.1-3.2-8.6-3.3-13.2
	c0-0.3,0-0.7,0-1c-0.1,0.1-0.1,0.2-0.2,0.2l-1.2,1.3l-0.3,0.3l-0.3,0.3l-0.7,0.6c-1.8,1.6-4,3-6.3,3.9c-2.3,0.9-4.8,1.4-7.3,1.4
	c-2.5,0-4.9-0.4-7.2-1.2c-2.3-0.8-4.5-2-6.3-3.6c-0.9-0.8-1.8-1.6-2.5-2.6c-0.2-0.2-0.4-0.5-0.6-0.7l-0.5-0.8
	c-0.4-0.5-0.6-1.1-0.9-1.6c-1.1-2.2-1.8-4.6-1.8-7c0-2.4,0.4-4.8,1.4-7c1-2.2,2.4-4.1,4.2-5.6c0.9-0.7,1.9-1.4,2.9-1.9
	c1.1-0.5,2.2-0.9,3.3-1c1.1-0.2,2.3-0.2,3.4,0c0.6,0,1.1,0.2,1.6,0.3c0.5,0.2,1.1,0.3,1.6,0.6c2,0.9,3.7,2.3,4.9,4.1
	c-3-3-7.4-4.1-11.1-2.9c-0.9,0.3-1.8,0.7-2.6,1.2c-0.4,0.3-0.8,0.5-1.1,0.8c-0.4,0.3-0.7,0.6-1,1c-1.3,1.4-2.3,3-2.8,4.8
	c-1.1,3.5-0.6,7.4,1.3,10.3c0.2,0.4,0.5,0.7,0.8,1.1l0.4,0.5c0.1,0.2,0.3,0.3,0.5,0.5c0.6,0.7,1.3,1.2,2,1.8
	c1.4,1.1,3.1,1.8,4.7,2.3c3.4,1,7,0.7,10.1-0.7l1.1-0.6l1.1-0.7c0.7-0.5,1.4-1,2-1.6l0.5-0.5l0.2-0.2l0.2-0.3l0.9-1
	c0.3-0.3,0.5-0.7,0.8-1.1l0.4-0.5c0.1-0.2,0.2-0.4,0.3-0.6c3.7-6,3.5-14.1-0.4-19.9c-0.2-0.4-0.5-0.7-0.8-1.1l-0.4-0.5l-0.5-0.5
	c-0.6-0.7-1.2-1.4-1.9-2l-1-0.9c-0.4-0.3-0.7-0.5-1.1-0.8c-0.4-0.3-0.7-0.6-1.1-0.8L46,52.9l-0.6-0.4c-0.2-0.1-0.4-0.2-0.6-0.3
	l-1.2-0.6c-0.4-0.2-0.8-0.3-1.3-0.5L41,50.7l-1.3-0.3c-0.4-0.1-0.9-0.3-1.3-0.3c-0.9-0.1-1.8-0.4-2.7-0.4c-3.6-0.3-7.4,0.2-10.8,1.5
	l-1.3,0.5c-0.4,0.2-0.9,0.3-1.3,0.6L21,53c-0.2,0.1-0.4,0.2-0.6,0.3l-0.6,0.4c-1.6,1-3.1,2.2-4.4,3.6c-2.7,2.7-5,5.9-6.6,9.4
	c-1.6,3.5-2.6,7.4-3,11.4c-0.4,4,0,8.1,0.9,12c0.5,2,1.1,4,1.9,5.9c0.1,0.1,0.1,0.3,0.2,0.4C20,115.3,40.5,128,64,128
	c16.1,0,30.8-6,42-15.8C102.8,114,99.3,115.4,95.6,116.2z"/>
</svg>
