<?xml version="1.0" encoding="utf-8"?>
<!-- Generator: Adobe Illustrator 25.2.1, SVG Export Plug-In . SVG Version: 6.00 Build 0)  -->
<svg version="1.2" baseProfile="tiny"
	 id="Layer_1" xmlns:cc="http://creativecommons.org/ns#" xmlns:dc="http://purl.org/dc/elements/1.1/" xmlns:rdf="http://www.w3.org/1999/02/22-rdf-syntax-ns#"
	 xmlns="http://www.w3.org/2000/svg" xmlns:xlink="http://www.w3.org/1999/xlink" x="0px" y="0px" viewBox="0 0 64 64"
	 overflow="visible" xml:space="preserve">
<ellipse id="bg" fill="#E7191F" cx="32" cy="32.1" rx="31" ry="31.1"/>
<g id="icon">
	<path id="right" d="M52.9,19.1C48.9,10.9,40.4,5.7,29.7,5l-4.9-0.3l4.7,1.5c5.6,1.8,16.7,9.2,18,18.8c1,7.4-3.8,14.7-14.4,21.6
		l-1.5,1l1.8,0.1c0.8,0.1,1.5,0.1,2.3,0.1c7,0,12.7-2.7,16.2-7.8C55.9,34,56.2,26.1,52.9,19.1z"/>
	<path id="top" d="M45.3,24.8c-3-7.8-8.4-12.7-15.1-13.8c-6.5-1-13.4,1.9-17.9,7.6C6.5,26,5.5,36.4,9.7,47l1.9,4.9l-0.8-5.2
		c-0.9-6.2,0.7-19.9,8.8-25.2c6-3.9,14.3-2.5,24.7,4.1l1.5,1L45.3,24.8z"/>
	<path id="bottom" d="M55.1,43.5c-4.4,4-16.1,9.9-24.7,6.2c-6.8-2.9-10.3-11-10.6-23.9l0-1.9l-1.1,1.5c-4.9,7.1-5.9,14.5-2.8,21
		c3,6.2,9.3,10.4,16.6,11c0.6,0,1.1,0.1,1.7,0.1c8.2,0,16.2-4.7,21.9-13.2l2.9-4.2L55.1,43.5z"/>
</g>
<path id="border" d="M32,64.2c-17.6,0-32-14.4-32-32.1S14.4,0,32,0c17.6,0,32,14.4,32,32.1S49.6,64.2,32,64.2z M32,2
	C15.5,2,2,15.5,2,32.1c0,16.6,13.4,30.1,30,30.1c16.5,0,30-13.5,30-30.1C62,15.5,48.5,2,32,2z"/>
</svg>
